<svg width="640" height="820" viewBox="0 0 640 820" fill="none" xmlns="http://www.w3.org/2000/svg">
  <defs>
    <linearGradient id="cp-bg" x1="56" y1="48" x2="590" y2="770" gradientUnits="userSpaceOnUse">
      <stop stop-color="#163A60"/>
      <stop offset="1" stop-color="#0F743C"/>
    </linearGradient>
    <linearGradient id="cp-glow" x1="150" y1="150" x2="500" y2="500" gradientUnits="userSpaceOnUse">
      <stop stop-color="white" stop-opacity="0.24"/>
      <stop offset="1" stop-color="white" stop-opacity="0.06"/>
    </linearGradient>
  </defs>

  <rect width="640" height="820" rx="42" fill="url(#cp-bg)"/>
  <rect x="30" y="30" width="580" height="760" rx="34" stroke="white" stroke-opacity="0.22" stroke-width="4"/>
  <rect x="120" y="120" width="400" height="390" rx="42" fill="url(#cp-glow)" stroke="white" stroke-opacity="0.18" stroke-width="3"/>

  <circle cx="320" cy="242" r="86" fill="white" fill-opacity="0.94"/>
  <path d="M188 440C188 373.726 241.726 320 308 320H332C398.274 320 452 373.726 452 440V462H188V440Z" fill="white" fill-opacity="0.94"/>

  <rect x="140" y="560" width="360" height="18" rx="9" fill="#FFD600"/>
  <rect x="176" y="606" width="288" height="12" rx="6" fill="white" fill-opacity="0.84"/>
  <rect x="204" y="640" width="232" height="12" rx="6" fill="white" fill-opacity="0.62"/>

  <text x="320" y="710" fill="white" font-family="Source Sans 3, Arial, sans-serif" font-size="34" font-weight="800" text-anchor="middle" letter-spacing="6">C/P ECOSA</text>
  <text x="320" y="754" fill="#FFD600" font-family="Source Sans 3, Arial, sans-serif" font-size="22" font-weight="700" text-anchor="middle" letter-spacing="3">IMAGE PLACEHOLDER</text>
</svg>
